<?xml version="1.0" encoding="UTF-8" standalone="no"?>
<!-- Created with Inkscape (http://www.inkscape.org/) -->

<svg
   xmlns:dc="http://purl.org/dc/elements/1.1/"
   xmlns:cc="http://creativecommons.org/ns#"
   xmlns:rdf="http://www.w3.org/1999/02/22-rdf-syntax-ns#"
   xmlns:svg="http://www.w3.org/2000/svg"
   xmlns="http://www.w3.org/2000/svg"
   xmlns:sodipodi="http://sodipodi.sourceforge.net/DTD/sodipodi-0.dtd"
   xmlns:inkscape="http://www.inkscape.org/namespaces/inkscape"
   width="416"
   height="252"
   viewBox="0 0 416 252"
   id="svg4699"
   version="1.1"
   inkscape:version="0.91 r13725"
   sodipodi:docname="logo.svg">
  <defs
     id="defs4701">
    <clipPath
       clipPathUnits="userSpaceOnUse"
       id="clipPath38">
      <path
         d="m 2559.74,2181.48 c 0,35.96 -46.61,50.25 -66.88,20.61 -8.48,-12.48 -8.48,-28.8 0,-41.22 20.27,-29.66 66.88,-15.32 66.88,20.61 z"
         id="path40"
         inkscape:connector-curvature="0" />
    </clipPath>
    <linearGradient
       x1="0"
       y1="0"
       x2="1"
       y2="0"
       gradientUnits="userSpaceOnUse"
       gradientTransform="matrix(3545.05,3114.95,3114.95,-3545.05,-530.88727,390.92043)"
       spreadMethod="pad"
       id="linearGradient42">
      <stop
         style="stop-opacity:1;stop-color:#ffffff"
         offset="0"
         id="stop44" />
      <stop
         style="stop-opacity:1;stop-color:#3d4ba7"
         offset="0.27244143"
         id="stop46" />
      <stop
         style="stop-opacity:1;stop-color:#3d4ba7"
         offset="0.435484"
         id="stop48" />
      <stop
         style="stop-opacity:1;stop-color:#23245f"
         offset="1"
         id="stop50" />
    </linearGradient>
    <clipPath
       clipPathUnits="userSpaceOnUse"
       id="clipPath58">
      <path
         d="m 1936.03,2003.93 c 77.61,0 329.21,0 631.23,0 21.35,82.09 137.68,82.25 159.08,0 250.73,0 519.79,0 745.65,0 -58.89,435.23 -550.76,682.1 -938.77,452.88 -102.59,206.34 -315.4,348.21 -561.45,348.21 -354.23,0 -641.56,-294.44 -626.1,-654.36 -114.51,0 -219.91,-34.88 -306.83,-94.25 l 251.27,0 c 9.22,35.47 41.23,61.84 79.52,61.84 45.47,0 82.47,-36.98 82.47,-82.46 0,-45.45 -37,-82.45 -82.47,-82.45 -38.29,0 -70.3,26.39 -79.52,61.84 l -304.126,0 c -47.019,-41.47 -86.714,-90.85 -117.015,-146.09 l 566.451,0 c 92.88,63.39 392.31,267.74 487.89,333 180.41,0 345.04,0 520.27,0 9.23,35.46 41.22,61.85 79.55,61.85 45.46,0 82.46,-37.01 82.46,-82.46 0,-45.48 -37,-82.46 -82.46,-82.46 -38.33,0 -70.32,26.38 -79.55,61.85 l -507.53,0 c -71.44,-48.76 -417.39,-284.88 -487.89,-333.01 -116.24,0 -407.76,0 -599.476,0 -16.754,-37.85 -29.286,-77.88 -37.047,-119.57 l 706.653,0 c 380.02,268.94 341.02,241.34 417.74,295.64 z"
         id="path60"
         inkscape:connector-curvature="0" />
    </clipPath>
    <clipPath
       clipPathUnits="userSpaceOnUse"
       id="clipPath78">
      <path
         d="m 1406.25,2035.79 c 0,36 -46.63,50.23 -66.86,20.62 -8.49,-12.45 -8.49,-28.77 0,-41.23 20.26,-29.66 66.86,-15.3 66.86,20.61 z"
         id="path80"
         inkscape:connector-curvature="0" />
    </clipPath>
    <linearGradient
       x1="0"
       y1="0"
       x2="1"
       y2="0"
       gradientUnits="userSpaceOnUse"
       gradientTransform="matrix(3544.75,3114.69,3114.69,-3544.75,-960.9603,880.86043)"
       spreadMethod="pad"
       id="linearGradient82">
      <stop
         style="stop-opacity:1;stop-color:#ffffff"
         offset="0"
         id="stop84" />
      <stop
         style="stop-opacity:1;stop-color:#3d4ba7"
         offset="0.27244143"
         id="stop86" />
      <stop
         style="stop-opacity:1;stop-color:#3d4ba7"
         offset="0.435484"
         id="stop88" />
      <stop
         style="stop-opacity:1;stop-color:#23245f"
         offset="1"
         id="stop90" />
    </linearGradient>
    <clipPath
       clipPathUnits="userSpaceOnUse"
       id="clipPath98">
      <path
         d="m 2576.38,1290.69 c -24.59,9.1 -49.26,-9.39 -49.26,-34.23 0,-20.21 16.4,-36.63 36.63,-36.63 40.6,0 50.79,56.83 12.63,70.86 z"
         id="path100"
         inkscape:connector-curvature="0" />
    </clipPath>
    <linearGradient
       x1="0"
       y1="0"
       x2="1"
       y2="0"
       gradientUnits="userSpaceOnUse"
       gradientTransform="matrix(3544.88,3114.8,3114.8,-3544.88,-54.295271,-151.18957)"
       spreadMethod="pad"
       id="linearGradient102">
      <stop
         style="stop-opacity:1;stop-color:#ffffff"
         offset="0"
         id="stop104" />
      <stop
         style="stop-opacity:1;stop-color:#3d4ba7"
         offset="0.27244143"
         id="stop106" />
      <stop
         style="stop-opacity:1;stop-color:#3d4ba7"
         offset="0.435484"
         id="stop108" />
      <stop
         style="stop-opacity:1;stop-color:#23245f"
         offset="1"
         id="stop110" />
    </linearGradient>
    <clipPath
       clipPathUnits="userSpaceOnUse"
       id="clipPath118">
      <path
         d="m 1300.01,1510.96 c 0,-35.98 46.65,-50.26 66.87,-20.62 8.5,12.44 8.5,28.77 0,41.23 -20.24,29.65 -66.87,15.3 -66.87,-20.61 z"
         id="path120"
         inkscape:connector-curvature="0" />
    </clipPath>
    <linearGradient
       x1="0"
       y1="0"
       x2="1"
       y2="0"
       gradientUnits="userSpaceOnUse"
       gradientTransform="matrix(3544.9,3114.82,3114.82,-3544.9,-715.2033,600.95043)"
       spreadMethod="pad"
       id="linearGradient122">
      <stop
         style="stop-opacity:1;stop-color:#ffffff"
         offset="0"
         id="stop124" />
      <stop
         style="stop-opacity:1;stop-color:#3d4ba7"
         offset="0.27244143"
         id="stop126" />
      <stop
         style="stop-opacity:1;stop-color:#3d4ba7"
         offset="0.435484"
         id="stop128" />
      <stop
         style="stop-opacity:1;stop-color:#23245f"
         offset="1"
         id="stop130" />
    </linearGradient>
    <clipPath
       clipPathUnits="userSpaceOnUse"
       id="clipPath138">
      <path
         d="m 3030.4,1830.87 c -20.22,0 -36.62,-16.39 -36.62,-36.61 0,-20.23 16.4,-36.62 36.62,-36.62 20.23,0 36.62,16.39 36.62,36.62 0,20.22 -16.39,36.61 -36.62,36.61 z"
         id="path140"
         inkscape:connector-curvature="0" />
    </clipPath>
    <linearGradient
       x1="0"
       y1="0"
       x2="1"
       y2="0"
       gradientUnits="userSpaceOnUse"
       gradientTransform="matrix(3544.98,3114.89,3114.89,-3544.98,-117.80127,-79.089571)"
       spreadMethod="pad"
       id="linearGradient142">
      <stop
         style="stop-opacity:1;stop-color:#ffffff"
         offset="0"
         id="stop144" />
      <stop
         style="stop-opacity:1;stop-color:#3d4ba7"
         offset="0.27244143"
         id="stop146" />
      <stop
         style="stop-opacity:1;stop-color:#3d4ba7"
         offset="0.435484"
         id="stop148" />
      <stop
         style="stop-opacity:1;stop-color:#23245f"
         offset="1"
         id="stop150" />
    </linearGradient>
    <clipPath
       clipPathUnits="userSpaceOnUse"
       id="clipPath158">
      <path
         d="m 2567.26,1962.7 c -270.51,0 -494.66,0 -618.09,0 -20.97,-14.84 -397.22,-281.13 -417.73,-295.65 -243.99,0 -484.31,0 -725.909,0 -25.136,-234.85 102.297,-449.58 303.539,-546.68 74.68,0 2388.02,0 2500.93,0 104.32,79.4 161.96,188.81 177.62,302.23 l -954.16,0 c -172.59,-122.48 -192.87,-136.9 -192.87,-136.9 21.18,-55.46 -20.63,-111.71 -76.84,-111.71 -45.47,0 -82.47,37.02 -82.47,82.47 0,69.58 81.33,108.33 135.28,62.78 41.63,29.54 81.53,57.87 203.73,144.59 107.69,0 683.17,0 971.17,0 2.05,42.64 -1.57,85.4 -10.97,126.92 l -1290.95,0 c -43.73,-32.8 -140.15,-105.2 -204.99,-153.87 22.53,-54.48 -17.92,-113.83 -76.19,-113.83 -45.46,0 -82.45,36.98 -82.45,82.46 0,68.39 79.06,107.7 133.61,64.16 29.78,22.34 87.2,65.46 216.27,162.32 108.64,0 988.38,0 1293.2,0 -16.44,50.77 -41.57,98.84 -74.93,141.65 -136.08,0 -351.68,0 -584.11,0 0,0.03 0,0.05 0.02,0.09 -21.33,-82.21 -137.77,-82.35 -159.13,0 0.02,-0.04 0.02,-0.06 0.02,-0.09 -405.84,0 -818.12,0 -917.11,0 -88.5,-62.54 -311.75,-220.33 -400.86,-283.3 -109,0 -142.54,0 -216.72,0 -9.22,-35.47 -41.23,-61.84 -79.51,-61.84 -45.48,0 -82.47,36.97 -82.47,82.46 0,45.45 36.99,82.46 82.47,82.46 38.28,0 70.29,-26.4 79.51,-61.85 l 203.59,0 c 145.41,102.75 258.49,182.67 400.89,283.3 148.94,0 546.46,0 930.21,0 0,-0.04 0,-0.06 -0.02,-0.08 21.32,82.22 137.75,82.34 159.13,0 -0.02,0.02 -0.02,0.04 -0.02,0.08 216.02,0 415.27,0 547.64,0 -47.89,47.96 -107.86,86.65 -179.55,110.8 -0.18,12.5 -0.91,24.79 -1.78,37.03 -254.61,0 -514.52,0 -749.92,0 -21.42,-82.36 -137.76,-82.01 -159.08,0 z"
         id="path160"
         inkscape:connector-curvature="0" />
    </clipPath>
    <clipPath
       clipPathUnits="userSpaceOnUse"
       id="clipPath178">
      <path
         d="m 2616.54,2003.93 c -8.49,-12.48 -8.47,-28.81 0,-41.23 14.59,-21.36 45.92,-21.32 60.51,0 8.5,12.48 8.49,28.78 0,41.23 -14.59,21.33 -45.92,21.32 -60.51,0 z"
         id="path180"
         inkscape:connector-curvature="0" />
    </clipPath>
    <linearGradient
       x1="0"
       y1="0"
       x2="1"
       y2="0"
       gradientUnits="userSpaceOnUse"
       gradientTransform="matrix(3544.49,3114.46,3114.46,-3544.49,-378.26027,218.19043)"
       spreadMethod="pad"
       id="linearGradient182">
      <stop
         style="stop-opacity:1;stop-color:#ffffff"
         offset="0"
         id="stop184" />
      <stop
         style="stop-opacity:1;stop-color:#3d4ba7"
         offset="0.27244143"
         id="stop186" />
      <stop
         style="stop-opacity:1;stop-color:#3d4ba7"
         offset="0.435484"
         id="stop188" />
      <stop
         style="stop-opacity:1;stop-color:#23245f"
         offset="1"
         id="stop190" />
    </linearGradient>
    <clipPath
       clipPathUnits="userSpaceOnUse"
       id="clipPath198">
      <path
         d="m 2220.04,1440.06 c -24.56,8.3 -48.28,-10.22 -48.28,-34.55 0,-20.23 16.37,-36.62 36.6,-36.62 41.48,0 50.39,58.05 11.68,71.17 z"
         id="path200"
         inkscape:connector-curvature="0" />
    </clipPath>
    <linearGradient
       x1="0"
       y1="0"
       x2="1"
       y2="0"
       gradientUnits="userSpaceOnUse"
       gradientTransform="matrix(3544.8,3114.73,3114.73,-3544.8,-282.95727,109.17043)"
       spreadMethod="pad"
       id="linearGradient202">
      <stop
         style="stop-opacity:1;stop-color:#ffffff"
         offset="0"
         id="stop204" />
      <stop
         style="stop-opacity:1;stop-color:#3d4ba7"
         offset="0.27244143"
         id="stop206" />
      <stop
         style="stop-opacity:1;stop-color:#3d4ba7"
         offset="0.435484"
         id="stop208" />
      <stop
         style="stop-opacity:1;stop-color:#23245f"
         offset="1"
         id="stop210" />
    </linearGradient>
    <clipPath
       clipPathUnits="userSpaceOnUse"
       id="clipPath222">
      <path
         d="m 2522.71,2153.57 c -21.88,0 -35.3,25.06 -22.65,43.64 15.54,22.74 50.99,11.44 50.99,-15.73 0,-17.64 -14.39,-27.91 -28.34,-27.91 l 0,0 z"
         id="path224"
         inkscape:connector-curvature="0" />
    </clipPath>
    <linearGradient
       x1="0"
       y1="0"
       x2="1"
       y2="0"
       gradientUnits="userSpaceOnUse"
       gradientTransform="matrix(-2502.88,-2485.5,-2485.5,2502.88,3701.4997,4238.0104)"
       spreadMethod="pad"
       id="linearGradient226">
      <stop
         style="stop-opacity:1;stop-color:#ffffff"
         offset="0"
         id="stop228" />
      <stop
         style="stop-opacity:1;stop-color:#3d4ba7"
         offset="0.27244143"
         id="stop230" />
      <stop
         style="stop-opacity:1;stop-color:#3d4ba7"
         offset="0.435484"
         id="stop232" />
      <stop
         style="stop-opacity:1;stop-color:#23245f"
         offset="1"
         id="stop234" />
    </linearGradient>
    <clipPath
       clipPathUnits="userSpaceOnUse"
       id="clipPath242">
      <path
         d="m 822.195,1716.97 c 7.254,35.05 18.055,69.35 32.176,102.2 l 596.469,0 c 0,0 411.81,281.08 487.9,333.01 l 498.39,0 c 33.03,-97.12 177.15,-73.16 177.15,29.3 0,102.41 -144.07,126.49 -177.15,29.3 l -516.5,0 c 0,0 -392.56,-267.94 -487.9,-333 l -548.851,0 c 28.152,48.11 63.543,91.35 105.406,128.71 l 294.355,0 c 33.05,-97.09 177.15,-73.17 177.15,29.3 0,102.42 -144.09,126.5 -177.15,29.31 l -215.25,0 c 90.17,54.58 183.99,76.87 286.35,76.87 -16.34,379.45 279.22,654.36 617.03,654.36 226.23,0 442.6,-119.99 557.83,-351.74 397.04,234.53 869.05,-15.41 932.36,-431.97 l -729.14,0 c -27.44,82.36 -144.64,82.26 -172.05,0 l -627.52,0 -417.72,-295.65 -693.335,0 z"
         id="path244"
         inkscape:connector-curvature="0" />
    </clipPath>
    <clipPath
       clipPathUnits="userSpaceOnUse"
       id="clipPath262">
      <path
         d="m 1346.57,2051.51 c 15.54,22.74 50.99,11.47 50.99,-15.72 0,-10.24 -4.73,-16.71 -8.69,-20.34 -25,-22.84 -60.76,9 -42.3,36.06 z"
         id="path264"
         inkscape:connector-curvature="0" />
    </clipPath>
    <linearGradient
       x1="0"
       y1="0"
       x2="1"
       y2="0"
       gradientUnits="userSpaceOnUse"
       gradientTransform="matrix(-2495.71,-2478.38,-2478.38,2495.71,3196.7197,4736.5204)"
       spreadMethod="pad"
       id="linearGradient266">
      <stop
         style="stop-opacity:1;stop-color:#ffffff"
         offset="0"
         id="stop268" />
      <stop
         style="stop-opacity:1;stop-color:#3d4ba7"
         offset="0.27244143"
         id="stop270" />
      <stop
         style="stop-opacity:1;stop-color:#3d4ba7"
         offset="0.435484"
         id="stop272" />
      <stop
         style="stop-opacity:1;stop-color:#23245f"
         offset="1"
         id="stop274" />
    </linearGradient>
    <clipPath
       clipPathUnits="userSpaceOnUse"
       id="clipPath282">
      <path
         d="m 2535.81,1256.46 c 0,15.39 12.4,27.91 27.65,27.91 16.74,0 30.93,-14.03 27.59,-32.82 -6.06,-33.99 -55.24,-28.6 -55.24,4.91 z"
         id="path284"
         inkscape:connector-curvature="0" />
    </clipPath>
    <linearGradient
       x1="0"
       y1="0"
       x2="1"
       y2="0"
       gradientUnits="userSpaceOnUse"
       gradientTransform="matrix(-2512.22,-2494.78,-2494.78,2512.22,4190.0697,3757.6804)"
       spreadMethod="pad"
       id="linearGradient286">
      <stop
         style="stop-opacity:1;stop-color:#ffffff"
         offset="0"
         id="stop288" />
      <stop
         style="stop-opacity:1;stop-color:#3d4ba7"
         offset="0.27244143"
         id="stop290" />
      <stop
         style="stop-opacity:1;stop-color:#3d4ba7"
         offset="0.435484"
         id="stop292" />
      <stop
         style="stop-opacity:1;stop-color:#23245f"
         offset="1"
         id="stop294" />
    </linearGradient>
    <clipPath
       clipPathUnits="userSpaceOnUse"
       id="clipPath302">
      <path
         d="m 1337.06,1483.05 c -37.68,0 -37.73,55.81 0.02,55.81 9.23,0 17.26,-4.33 22.63,-12.19 12.64,-18.54 -0.77,-43.62 -22.65,-43.62 l 0,0 z"
         id="path304"
         inkscape:connector-curvature="0" />
    </clipPath>
    <linearGradient
       x1="0"
       y1="0"
       x2="1"
       y2="0"
       gradientUnits="userSpaceOnUse"
       gradientTransform="matrix(-2517.18,-2499.7,-2499.7,2517.18,3459.3397,4505.4904)"
       spreadMethod="pad"
       id="linearGradient306">
      <stop
         style="stop-opacity:1;stop-color:#ffffff"
         offset="0"
         id="stop308" />
      <stop
         style="stop-opacity:1;stop-color:#3d4ba7"
         offset="0.27244143"
         id="stop310" />
      <stop
         style="stop-opacity:1;stop-color:#3d4ba7"
         offset="0.435484"
         id="stop312" />
      <stop
         style="stop-opacity:1;stop-color:#23245f"
         offset="1"
         id="stop314" />
    </linearGradient>
    <clipPath
       clipPathUnits="userSpaceOnUse"
       id="clipPath322">
      <path
         d="m 3030.4,1766.33 c -15.39,0 -27.92,12.53 -27.92,27.93 0,15.4 12.53,27.92 27.92,27.92 15.4,0 27.93,-12.52 27.93,-27.92 0,-15.4 -12.53,-27.93 -27.93,-27.93 z"
         id="path324"
         inkscape:connector-curvature="0" />
    </clipPath>
    <linearGradient
       x1="0"
       y1="0"
       x2="1"
       y2="0"
       gradientUnits="userSpaceOnUse"
       gradientTransform="matrix(-2501.99,-2484.62,-2484.62,2501.99,4146.5797,3789.0504)"
       spreadMethod="pad"
       id="linearGradient326">
      <stop
         style="stop-opacity:1;stop-color:#ffffff"
         offset="0"
         id="stop328" />
      <stop
         style="stop-opacity:1;stop-color:#3d4ba7"
         offset="0.27244143"
         id="stop330" />
      <stop
         style="stop-opacity:1;stop-color:#3d4ba7"
         offset="0.435484"
         id="stop332" />
      <stop
         style="stop-opacity:1;stop-color:#23245f"
         offset="1"
         id="stop334" />
    </linearGradient>
    <clipPath
       clipPathUnits="userSpaceOnUse"
       id="clipPath342">
      <path
         d="m 1111.06,1129.06 c -199.208,97.02 -318.029,308.74 -297.658,529.3 l 720.798,0 417.73,295.65 608.84,0 c 27.41,-82.25 144.62,-82.39 172.05,0 l 735.31,0 c 1.15,-17.62 1.18,-25.91 1.29,-34.61 61.59,-20.75 115.5,-49.44 166.48,-95.84 l -519.47,0 c -27.47,82.36 -144.62,82.27 -172.06,0 l -926.47,0 -400.91,-283.3 -194.36,0 c -33.03,97.11 -177.13,73.18 -177.13,-29.3 0,-102.52 144.14,-126.36 177.13,-29.31 l 213.02,0 400.86,283.31 907.87,0 c 27.45,-82.36 144.63,-82.26 172.05,0 l 573.36,0 c 28.69,-37.54 51.22,-79.28 67.09,-124.28 l -1283.98,0 -213.4,-160.17 c -60.22,41.59 -142.28,-2.01 -142.28,-75 0,-50.27 40.89,-91.15 91.14,-91.15 61.92,0 105.9,60.75 86.59,119.46 l 197.49,148.25 1281.05,0 c 7.53,-35.76 10.75,-72.54 9.62,-109.55 l -965.58,0 -200.69,-142.44 c -60.09,43.99 -144.25,0.17 -144.25,-73.62 0,-88.94 115.55,-125.29 166.34,-51.5 15.81,22.96 20.03,50.83 11.98,77.41 13.05,9.27 55.78,39.61 185.32,131.54 l 941.3,0 c -18.15,-113.11 -78.37,-213.84 -170.48,-284.85 l -2495.99,0 z"
         id="path344"
         inkscape:connector-curvature="0" />
    </clipPath>
    <clipPath
       clipPathUnits="userSpaceOnUse"
       id="clipPath362">
      <path
         d="m 2646.78,1955.38 c -22.28,0 -35.75,25.01 -23.05,43.66 21,30.71 66.75,-1.2 46.14,-31.45 -5.31,-7.75 -13.73,-12.21 -23.09,-12.21 l 0,0 z"
         id="path364"
         inkscape:connector-curvature="0" />
    </clipPath>
    <linearGradient
       x1="0"
       y1="0"
       x2="1"
       y2="0"
       gradientUnits="userSpaceOnUse"
       gradientTransform="matrix(-2493.15,-2475.84,-2475.84,2493.15,3857.3797,4071.9204)"
       spreadMethod="pad"
       id="linearGradient366">
      <stop
         style="stop-opacity:1;stop-color:#ffffff"
         offset="0"
         id="stop368" />
      <stop
         style="stop-opacity:1;stop-color:#3d4ba7"
         offset="0.27244143"
         id="stop370" />
      <stop
         style="stop-opacity:1;stop-color:#3d4ba7"
         offset="0.435484"
         id="stop372" />
      <stop
         style="stop-opacity:1;stop-color:#23245f"
         offset="1"
         id="stop374" />
    </linearGradient>
    <clipPath
       clipPathUnits="userSpaceOnUse"
       id="clipPath382">
      <path
         d="m 2180.44,1405.51 c 0,40.09 61.75,34.86 55.23,-4.75 -5.61,-34 -55.23,-29 -55.23,4.75 z"
         id="path384"
         inkscape:connector-curvature="0" />
    </clipPath>
    <linearGradient
       x1="0"
       y1="0"
       x2="1"
       y2="0"
       gradientUnits="userSpaceOnUse"
       gradientTransform="matrix(-2519.22,-2501.73,-2501.73,2519.22,3944.0497,4015.6804)"
       spreadMethod="pad"
       id="linearGradient386">
      <stop
         style="stop-opacity:1;stop-color:#ffffff"
         offset="0"
         id="stop388" />
      <stop
         style="stop-opacity:1;stop-color:#3d4ba7"
         offset="0.27244143"
         id="stop390" />
      <stop
         style="stop-opacity:1;stop-color:#3d4ba7"
         offset="0.435484"
         id="stop392" />
      <stop
         style="stop-opacity:1;stop-color:#23245f"
         offset="1"
         id="stop394" />
    </linearGradient>
  </defs>
  <sodipodi:namedview
     id="base"
     pagecolor="#ffffff"
     bordercolor="#666666"
     borderopacity="1.0"
     inkscape:pageopacity="0.0"
     inkscape:pageshadow="2"
     inkscape:zoom="1.979899"
     inkscape:cx="201.95618"
     inkscape:cy="76.158124"
     inkscape:document-units="px"
     inkscape:current-layer="layer1"
     showgrid="false"
     inkscape:window-width="1920"
     inkscape:window-height="1015"
     inkscape:window-x="0"
     inkscape:window-y="0"
     inkscape:window-maximized="1"
     units="px" />
  <metadata
     id="metadata4704">
    <rdf:RDF>
      <cc:Work
         rdf:about="">
        <dc:format>image/svg+xml</dc:format>
        <dc:type
           rdf:resource="http://purl.org/dc/dcmitype/StillImage" />
        <dc:title></dc:title>
      </cc:Work>
    </rdf:RDF>
  </metadata>
  <g
     inkscape:label="Layer 1"
     inkscape:groupmode="layer"
     id="layer1"
     transform="translate(0,-800.36216)">
    <g
       id="g12"
       transform="matrix(0.125,0,0,-0.125,-79.63675,1171.7948)">
      <g
         id="g14"
         transform="scale(10,10)" />
      <g
         id="g20"
         transform="scale(10,10)" />
      <g
         id="g22"
         transform="scale(10,10)" />
      <g
         id="g28"
         transform="scale(10,10)" />
      <g
         id="g34">
        <g
           id="g36"
           clip-path="url(#clipPath38)">
          <path
             d="m 2559.74,2181.48 c 0,35.96 -46.61,50.25 -66.88,20.61 -8.48,-12.48 -8.48,-28.8 0,-41.22 20.27,-29.66 66.88,-15.32 66.88,20.61"
             style="fill:#992729;fill-opacity:1;fill-rule:nonzero;stroke:none"
             id="path52"
             inkscape:connector-curvature="0" />
        </g>
      </g>
      <g
         id="g54">
        <g
           id="g56"
           clip-path="url(#clipPath58)">
          <path
             d="m 1936.03,2003.93 c 77.61,0 329.21,0 631.23,0 21.35,82.09 137.68,82.25 159.08,0 250.73,0 519.79,0 745.65,0 -58.89,435.23 -550.76,682.1 -938.77,452.88 -102.59,206.34 -315.4,348.21 -561.45,348.21 -354.23,0 -641.56,-294.44 -626.1,-654.36 -114.51,0 -219.91,-34.88 -306.83,-94.25 l 251.27,0 c 9.22,35.47 41.23,61.84 79.52,61.84 45.47,0 82.47,-36.98 82.47,-82.46 0,-45.45 -37,-82.45 -82.47,-82.45 -38.29,0 -70.3,26.39 -79.52,61.84 l -304.126,0 c -47.019,-41.47 -86.714,-90.85 -117.015,-146.09 l 566.451,0 c 92.88,63.39 392.31,267.74 487.89,333 180.41,0 345.04,0 520.27,0 9.23,35.46 41.22,61.85 79.55,61.85 45.46,0 82.46,-37.01 82.46,-82.46 0,-45.48 -37,-82.46 -82.46,-82.46 -38.33,0 -70.32,26.38 -79.55,61.85 l -507.53,0 c -71.44,-48.76 -417.39,-284.88 -487.89,-333.01 -116.24,0 -407.76,0 -599.476,0 -16.754,-37.85 -29.286,-77.88 -37.047,-119.57 l 706.653,0 c 380.02,268.94 341.02,241.34 417.74,295.64"
             style="fill:#992729;fill-opacity:1;fill-rule:nonzero;stroke:none"
             id="path72"
             inkscape:connector-curvature="0" />
        </g>
      </g>
      <g
         id="g74">
        <g
           id="g76"
           clip-path="url(#clipPath78)">
          <path
             d="m 1406.25,2035.79 c 0,36 -46.63,50.23 -66.86,20.62 -8.49,-12.45 -8.49,-28.77 0,-41.23 20.26,-29.66 66.86,-15.3 66.86,20.61"
             style="fill:#992729;fill-opacity:1;fill-rule:nonzero;stroke:none"
             id="path92"
             inkscape:connector-curvature="0" />
        </g>
      </g>
      <g
         id="g94">
        <g
           id="g96"
           clip-path="url(#clipPath98)">
          <path
             d="m 2576.38,1290.69 c -24.59,9.1 -49.26,-9.39 -49.26,-34.23 0,-20.21 16.4,-36.63 36.63,-36.63 40.6,0 50.79,56.83 12.63,70.86"
             style="fill:#992729;fill-opacity:1;fill-rule:nonzero;stroke:none"
             id="path112"
             inkscape:connector-curvature="0" />
        </g>
      </g>
      <g
         id="g114">
        <g
           id="g116"
           clip-path="url(#clipPath118)">
          <path
             d="m 1300.01,1510.96 c 0,-35.98 46.65,-50.26 66.87,-20.62 8.5,12.44 8.5,28.77 0,41.23 -20.24,29.65 -66.87,15.3 -66.87,-20.61"
             style="fill:#992729;fill-opacity:1;fill-rule:nonzero;stroke:none"
             id="path132"
             inkscape:connector-curvature="0" />
        </g>
      </g>
      <g
         id="g134">
        <g
           id="g136"
           clip-path="url(#clipPath138)">
          <path
             d="m 3030.4,1830.87 c -20.22,0 -36.62,-16.39 -36.62,-36.61 0,-20.23 16.4,-36.62 36.62,-36.62 20.23,0 36.62,16.39 36.62,36.62 0,20.22 -16.39,36.61 -36.62,36.61"
             style="fill:#992729;fill-opacity:1;fill-rule:nonzero;stroke:none"
             id="path152"
             inkscape:connector-curvature="0" />
        </g>
      </g>
      <g
         id="g154">
        <g
           id="g156"
           clip-path="url(#clipPath158)">
          <path
             d="m 2567.26,1962.7 c -270.51,0 -494.66,0 -618.09,0 -20.97,-14.84 -397.22,-281.13 -417.73,-295.65 -243.99,0 -484.31,0 -725.909,0 -25.136,-234.85 102.297,-449.58 303.539,-546.68 74.68,0 2388.02,0 2500.93,0 104.32,79.4 161.96,188.81 177.62,302.23 l -954.16,0 c -172.59,-122.48 -192.87,-136.9 -192.87,-136.9 21.18,-55.46 -20.63,-111.71 -76.84,-111.71 -45.47,0 -82.47,37.02 -82.47,82.47 0,69.58 81.33,108.33 135.28,62.78 41.63,29.54 81.53,57.87 203.73,144.59 107.69,0 683.17,0 971.17,0 2.05,42.64 -1.57,85.4 -10.97,126.92 l -1290.95,0 c -43.73,-32.8 -140.15,-105.2 -204.99,-153.87 22.53,-54.48 -17.92,-113.83 -76.19,-113.83 -45.46,0 -82.45,36.98 -82.45,82.46 0,68.39 79.06,107.7 133.61,64.16 29.78,22.34 87.2,65.46 216.27,162.32 108.64,0 988.38,0 1293.2,0 -16.44,50.77 -41.57,98.84 -74.93,141.65 -136.08,0 -351.68,0 -584.11,0 0,0.03 0,0.05 0.02,0.09 -21.33,-82.21 -137.77,-82.35 -159.13,0 0.02,-0.04 0.02,-0.06 0.02,-0.09 -405.84,0 -818.12,0 -917.11,0 -88.5,-62.54 -311.75,-220.33 -400.86,-283.3 -109,0 -142.54,0 -216.72,0 -9.22,-35.47 -41.23,-61.84 -79.51,-61.84 -45.48,0 -82.47,36.97 -82.47,82.46 0,45.45 36.99,82.46 82.47,82.46 38.28,0 70.29,-26.4 79.51,-61.85 l 203.59,0 c 145.41,102.75 258.49,182.67 400.89,283.3 148.94,0 546.46,0 930.21,0 0,-0.04 0,-0.06 -0.02,-0.08 21.32,82.22 137.75,82.34 159.13,0 -0.02,0.02 -0.02,0.04 -0.02,0.08 216.02,0 415.27,0 547.64,0 -47.89,47.96 -107.86,86.65 -179.55,110.8 -0.18,12.5 -0.91,24.79 -1.78,37.03 -254.61,0 -514.52,0 -749.92,0 -21.42,-82.36 -137.76,-82.01 -159.08,0"
             style="fill:#992729;fill-opacity:1;fill-rule:nonzero;stroke:none"
             id="path172"
             inkscape:connector-curvature="0" />
        </g>
      </g>
      <g
         id="g174">
        <g
           id="g176"
           clip-path="url(#clipPath178)">
          <path
             d="m 2616.54,2003.93 c -8.49,-12.48 -8.47,-28.81 0,-41.23 14.59,-21.36 45.92,-21.32 60.51,0 8.5,12.48 8.49,28.78 0,41.23 -14.59,21.33 -45.92,21.32 -60.51,0"
             style="fill:#992729;fill-opacity:1;fill-rule:nonzero;stroke:none"
             id="path192"
             inkscape:connector-curvature="0" />
        </g>
      </g>
      <g
         id="g194">
        <g
           id="g196"
           clip-path="url(#clipPath198)">
          <path
             d="m 2220.04,1440.06 c -24.56,8.3 -48.28,-10.22 -48.28,-34.55 0,-20.23 16.37,-36.62 36.6,-36.62 41.48,0 50.39,58.05 11.68,71.17"
             style="fill:#992729;fill-opacity:1;fill-rule:nonzero;stroke:none"
             id="path212"
             inkscape:connector-curvature="0" />
        </g>
      </g>
      <path
         d="m 3659.59,1054.78 -22.11,-16.86 -2547.59,0 c -248.136,119.69 -370.339,344.91 -370.339,570.81 0,316.76 244.711,587.99 513.669,646.87 42.55,627.56 956.42,888.13 1332.05,310.49 444.76,197.08 947.4,-108.73 991.86,-583.16 366.58,-165.86 435.74,-674.49 102.46,-928.15 z m -26.12,982.24 c -73.41,473.67 -567.91,791.96 -1038.49,629.32 -432.82,555.59 -1342.61,292.86 -1437.02,-340.46 -299.761,-106.11 -520.866,-385.36 -520.866,-717.15 0,-269.66 156.988,-519.64 399.966,-636.878 l 33.96,-16.391 2594.27,0 44.25,33.687 c 371.09,282.472 308.48,838.892 -76.07,1047.872"
         style="fill:#231f20;fill-opacity:1;fill-rule:nonzero;stroke:none"
         id="path214"
         inkscape:connector-curvature="0" />
      <path
         d="m 1216.88,2269.65 c -255.22,-62.4 -514.708,-323.21 -514.708,-660.92 0,-244.63 133.719,-467.63 383.748,-588.19 l 2557.43,0 26.78,20.41 c 338.76,257.83 276.54,776.73 -96.71,953.58 -50.56,468.33 -547.25,784.16 -1001.69,593.26 -387.9,572.28 -1300.37,309.82 -1354.85,-318.14 z m -141.89,-1296.81 -30.38,14.648 c -563.071,271.702 -511.969,1098.762 129,1325.492 94.11,631.52 979.43,891.87 1415.31,332.88 475.58,164.42 954.86,-142.79 1028.69,-620 391.34,-212.58 436.78,-752.35 81.41,-1022.88 l -39.59,-30.14 -2584.44,0"
         style="fill:#4f4c4c;fill-opacity:1;fill-rule:nonzero;stroke:none"
         id="path216"
         inkscape:connector-curvature="0" />
      <g
         id="g218">
        <g
           id="g220"
           clip-path="url(#clipPath222)">
          <path
             d="m 2522.71,2153.57 c -21.88,0 -35.3,25.06 -22.65,43.64 15.54,22.74 50.99,11.44 50.99,-15.73 0,-17.64 -14.39,-27.91 -28.34,-27.91 l 0,0"
             style="fill:#b52e31;fill-opacity:1;fill-rule:nonzero;stroke:none"
             id="path236"
             inkscape:connector-curvature="0" />
        </g>
      </g>
      <g
         id="g238">
        <g
           id="g240"
           clip-path="url(#clipPath242)">
          <path
             d="m 822.195,1716.97 c 7.254,35.05 18.055,69.35 32.176,102.2 l 596.469,0 c 0,0 411.81,281.08 487.9,333.01 l 498.39,0 c 33.03,-97.12 177.15,-73.16 177.15,29.3 0,102.41 -144.07,126.49 -177.15,29.3 l -516.5,0 c 0,0 -392.56,-267.94 -487.9,-333 l -548.851,0 c 28.152,48.11 63.543,91.35 105.406,128.71 l 294.355,0 c 33.05,-97.09 177.15,-73.17 177.15,29.3 0,102.42 -144.09,126.5 -177.15,29.31 l -215.25,0 c 90.17,54.58 183.99,76.87 286.35,76.87 -16.34,379.45 279.22,654.36 617.03,654.36 226.23,0 442.6,-119.99 557.83,-351.74 397.04,234.53 869.05,-15.41 932.36,-431.97 l -729.14,0 c -27.44,82.36 -144.64,82.26 -172.05,0 l -627.52,0 -417.72,-295.65 -693.335,0"
             style="fill:#b52e31;fill-opacity:1;fill-rule:nonzero;stroke:none"
             id="path256"
             inkscape:connector-curvature="0" />
        </g>
      </g>
      <g
         id="g258">
        <g
           id="g260"
           clip-path="url(#clipPath262)">
          <path
             d="m 1346.57,2051.51 c 15.54,22.74 50.99,11.47 50.99,-15.72 0,-10.24 -4.73,-16.71 -8.69,-20.34 -25,-22.84 -60.76,9 -42.3,36.06"
             style="fill:#b52e31;fill-opacity:1;fill-rule:nonzero;stroke:none"
             id="path276"
             inkscape:connector-curvature="0" />
        </g>
      </g>
      <g
         id="g278">
        <g
           id="g280"
           clip-path="url(#clipPath282)">
          <path
             d="m 2535.81,1256.46 c 0,15.39 12.4,27.91 27.65,27.91 16.74,0 30.93,-14.03 27.59,-32.82 -6.06,-33.99 -55.24,-28.6 -55.24,4.91"
             style="fill:#b52e31;fill-opacity:1;fill-rule:nonzero;stroke:none"
             id="path296"
             inkscape:connector-curvature="0" />
        </g>
      </g>
      <g
         id="g298">
        <g
           id="g300"
           clip-path="url(#clipPath302)">
          <path
             d="m 1337.06,1483.05 c -37.68,0 -37.73,55.81 0.02,55.81 9.23,0 17.26,-4.33 22.63,-12.19 12.64,-18.54 -0.77,-43.62 -22.65,-43.62 l 0,0"
             style="fill:#b52e31;fill-opacity:1;fill-rule:nonzero;stroke:none"
             id="path316"
             inkscape:connector-curvature="0" />
        </g>
      </g>
      <g
         id="g318">
        <g
           id="g320"
           clip-path="url(#clipPath322)">
          <path
             d="m 3030.4,1766.33 c -15.39,0 -27.92,12.53 -27.92,27.93 0,15.4 12.53,27.92 27.92,27.92 15.4,0 27.93,-12.52 27.93,-27.92 0,-15.4 -12.53,-27.93 -27.93,-27.93"
             style="fill:#b52e31;fill-opacity:1;fill-rule:nonzero;stroke:none"
             id="path336"
             inkscape:connector-curvature="0" />
        </g>
      </g>
      <g
         id="g338">
        <g
           id="g340"
           clip-path="url(#clipPath342)">
          <path
             d="m 1111.06,1129.06 c -199.208,97.02 -318.029,308.74 -297.658,529.3 l 720.798,0 417.73,295.65 608.84,0 c 27.41,-82.25 144.62,-82.39 172.05,0 l 735.31,0 c 1.15,-17.62 1.18,-25.91 1.29,-34.61 61.59,-20.75 115.5,-49.44 166.48,-95.84 l -519.47,0 c -27.47,82.36 -144.62,82.27 -172.06,0 l -926.47,0 -400.91,-283.3 -194.36,0 c -33.03,97.11 -177.13,73.18 -177.13,-29.3 0,-102.52 144.14,-126.36 177.13,-29.31 l 213.02,0 400.86,283.31 907.87,0 c 27.45,-82.36 144.63,-82.26 172.05,0 l 573.36,0 c 28.69,-37.54 51.22,-79.28 67.09,-124.28 l -1283.98,0 -213.4,-160.17 c -60.22,41.59 -142.28,-2.01 -142.28,-75 0,-50.27 40.89,-91.15 91.14,-91.15 61.92,0 105.9,60.75 86.59,119.46 l 197.49,148.25 1281.05,0 c 7.53,-35.76 10.75,-72.54 9.62,-109.55 l -965.58,0 -200.69,-142.44 c -60.09,43.99 -144.25,0.17 -144.25,-73.62 0,-88.94 115.55,-125.29 166.34,-51.5 15.81,22.96 20.03,50.83 11.98,77.41 13.05,9.27 55.78,39.61 185.32,131.54 l 941.3,0 c -18.15,-113.11 -78.37,-213.84 -170.48,-284.85 l -2495.99,0"
             style="fill:#b52e31;fill-opacity:1;fill-rule:nonzero;stroke:none"
             id="path356"
             inkscape:connector-curvature="0" />
        </g>
      </g>
      <g
         id="g358">
        <g
           id="g360"
           clip-path="url(#clipPath362)">
          <path
             d="m 2646.78,1955.38 c -22.28,0 -35.75,25.01 -23.05,43.66 21,30.71 66.75,-1.2 46.14,-31.45 -5.31,-7.75 -13.73,-12.21 -23.09,-12.21 l 0,0"
             style="fill:#b52e31;fill-opacity:1;fill-rule:nonzero;stroke:none"
             id="path376"
             inkscape:connector-curvature="0" />
        </g>
      </g>
      <g
         id="g378">
        <g
           id="g380"
           clip-path="url(#clipPath382)">
          <path
             d="m 2180.44,1405.51 c 0,40.09 61.75,34.86 55.23,-4.75 -5.61,-34 -55.23,-29 -55.23,4.75"
             style="fill:#b52e31;fill-opacity:1;fill-rule:nonzero;stroke:none"
             id="path396"
             inkscape:connector-curvature="0" />
        </g>
      </g>
    </g>
  </g>
</svg>
